ply
format ascii 1.0
comment VCGLIB generated
element vertex 137
property float x
property float y
property float z
property float nx
property float ny
property float nz
property float texture_u
property float texture_v
element face 128
property list uchar int vertex_indices
end_header
0.097545 -0.5 0.490393 0 1 4.371139e-08 0.097545 -0.500000
0 -0.5 0.5 0 1 4.371139e-08 0.000000 -0.500000
0 -0.5 0 0 1 4.371139e-08 0.000000 -0.500000
-0.09754401 -0.5 0.490393 0 1 4.371139e-08 -0.097544 -0.500000
-0.191341 -0.5 0.46194 0 1 4.371139e-08 -0.191341 -0.500000
-0.277785 -0.5 0.415735 0 1 4.371139e-08 -0.277785 -0.500000
-0.353553 -0.5 0.353554 0 1 4.371139e-08 -0.353553 -0.500000
-0.415734 -0.5 0.277786 0 1 4.371139e-08 -0.415734 -0.500000
-0.46194 -0.5 0.191342 0 1 4.371139e-08 -0.461940 -0.500000
-0.490393 -0.5 0.09754595 0 1 4.371139e-08 -0.490393 -0.500000
-0.5 -0.5 0 0 1 4.371139e-08 -0.500000 -0.500000
-0.490393 -0.5 -0.097545 0 1 4.371139e-08 -0.490393 -0.500000
-0.490393 -0.5 -0.097545 0 1 1.043711e-06 -0.490393 -0.500000
-0.46194 -0.5 -0.191341 0 1 1.043711e-06 -0.461940 -0.500000
0 -0.5 0 0 1 1.043711e-06 0.000000 -0.500000
-0.46194 -0.5 -0.191341 0 1 4.371139e-08 -0.461940 -0.500000
-0.415735 -0.5 -0.277785 0 1 4.371139e-08 -0.415735 -0.500000
-0.353554 -0.5 -0.353553 0 1 4.371139e-08 -0.353554 -0.500000
-0.277785 -0.5 -0.415735 0 1 4.371139e-08 -0.277785 -0.500000
-0.191342 -0.5 -0.46194 0 1 4.371139e-08 -0.191342 -0.500000
-0.097545 -0.5 -0.490393 0 1 4.371139e-08 -0.097545 -0.500000
0 -0.5 -0.5 0 1 4.371139e-08 0.000000 -0.500000
0.097545 -0.5 -0.490393 0 1 4.371139e-08 0.097545 -0.500000
0.191342 -0.5 -0.46194 0 1 4.371139e-08 0.191342 -0.500000
0.277785 -0.5 -0.415735 0 1 4.371139e-08 0.277785 -0.500000
0.353553 -0.5 -0.353553 0 1 4.371139e-08 0.353553 -0.500000
0.415735 -0.5 -0.277785 0 1 4.371139e-08 0.415735 -0.500000
0.46194 -0.5 -0.191342 0 1 4.371139e-08 0.461940 -0.500000
0.46194 -0.5 -0.191342 0 1 1.043711e-06 0.461940 -0.500000
0.490393 -0.5 -0.097545 0 1 1.043711e-06 0.490393 -0.500000
0.490393 -0.5 -0.097545 0 1 4.371139e-08 0.490393 -0.500000
0.5 -0.5 0 0 1 4.371139e-08 0.500000 -0.500000
0.490393 -0.5 0.097545 0 1 4.371139e-08 0.490393 -0.500000
0.46194 -0.5 0.191342 0 1 4.371139e-08 0.461940 -0.500000
0.415735 -0.5 0.277785 0 1 4.371139e-08 0.415735 -0.500000
0.353553 -0.5 0.353553 0 1 4.371139e-08 0.353553 -0.500000
0.277785 -0.5 0.415735 0 1 4.371139e-08 0.277785 -0.500000
0.191342 -0.5 0.46194 0 1 4.371139e-08 0.191342 -0.500000
0 -0.5 0.5 0 0.6857039 -0.7278806 0.000000 -0.500000
0.097545 -0.5 0.490393 -0.1419745 0.6857023 -0.7139017 0.097545 -0.500000
0.097545 0.5 0.490393 -0.1420049 -0.6856992 -0.7138987 0.097545 0.500000
0.191342 -0.5 0.46194 -0.2785449 0.6856973 -0.672482 0.191342 -0.500000
0.191342 0.5 0.46194 -0.2785449 -0.6856972 -0.6724821 0.191342 0.500000
0.277785 -0.5 0.415735 -0.4043764 0.6857008 -0.6052225 0.277785 -0.500000
0.277785 0.5 0.415735 -0.4043763 -0.6857008 -0.6052226 0.277785 0.500000
0.353553 -0.5 0.353553 -0.5146823 0.6857144 -0.5146823 0.353553 -0.500000
0.353553 0.5 0.353553 -0.5146823 -0.6857144 -0.5146824 0.353553 0.500000
0.415735 -0.5 0.277785 -0.6052225 0.6857008 -0.4043764 0.415735 -0.500000
0.415735 0.5 0.277785 -0.6052225 -0.6857008 -0.4043764 0.415735 0.500000
0.46194 -0.5 0.191342 -0.672482 0.6856973 -0.2785449 0.461940 -0.500000
0.46194 0.5 0.191342 -0.672482 -0.6856973 -0.278545 0.461940 0.500000
0.490393 -0.5 0.097545 -0.7138986 0.6856992 -0.1420049 0.490393 -0.500000
0.490393 0.5 0.09754506 -0.7139017 -0.6857023 -0.1419746 0.490393 0.500000
0.5 -0.5 0 -0.7278807 0.6857039 2.997307e-08 0.500000 -0.500000
0.5 0.5 2.980232e-08 -0.7278807 -0.6857039 -2.997307e-08 0.500000 0.500000
0.490393 -0.5 -0.097545 -0.7138986 0.6856992 0.142005 0.490393 -0.500000
0.490393 0.5 -0.09754497 -0.7139017 -0.6857023 0.1419745 0.490393 0.500000
0.46194 -0.5 -0.191342 -0.672482 0.6856973 0.278545 0.461940 -0.500000
0.46194 0.5 -0.191342 -0.672482 -0.6856973 0.2785449 0.461940 0.500000
0.415735 -0.5 -0.277785 -0.6052225 0.6857008 0.4043764 0.415735 -0.500000
0.415735 0.5 -0.277785 -0.6052225 -0.6857008 0.4043764 0.415735 0.500000
0.353553 -0.5 -0.353553 -0.5146823 0.6857144 0.5146824 0.353553 -0.500000
0.353553 0.5 -0.353553 -0.5146823 -0.6857144 0.5146823 0.353553 0.500000
0.277785 -0.5 -0.415735 -0.4043763 0.6857008 0.6052226 0.277785 -0.500000
0.277785 0.5 -0.415735 -0.4043764 -0.6857008 0.6052225 0.277785 0.500000
0.191342 -0.5 -0.46194 -0.2785449 0.6856972 0.6724821 0.191342 -0.500000
0.191342 0.5 -0.46194 -0.2785449 -0.6856973 0.672482 0.191342 0.500000
0.097545 -0.5 -0.490393 -0.1420049 0.6856992 0.7138987 0.097545 -0.500000
0.097545 0.5 -0.490393 -0.1420049 -0.6856993 0.7138986 0.097545 0.500000
0 -0.5 -0.5 0 0.6857038 0.7278808 0.000000 -0.500000
0 0.5 -0.5 0 -0.6857039 0.7278806 0.000000 0.500000
-0.097545 -0.5 -0.490393 0.1420049 0.6856992 0.7138987 -0.097545 -0.500000
-0.097545 0.5 -0.490393 0.1419745 -0.6857023 0.7139017 -0.097545 0.500000
-0.191342 -0.5 -0.46194 0.2785449 0.6856972 0.6724821 -0.191342 -0.500000
-0.191342 0.5 -0.46194 0.2785449 -0.6856973 0.672482 -0.191342 0.500000
-0.277785 -0.5 -0.415735 0.4043763 0.6857008 0.6052226 -0.277785 -0.500000
-0.277785 0.5 -0.415735 0.4043764 -0.6857008 0.6052225 -0.277785 0.500000
-0.353554 -0.5 -0.353553 0.5147051 0.6857035 0.5146742 -0.353554 -0.500000
-0.353554 0.5 -0.353553 0.5147051 -0.6857035 0.5146741 -0.353554 0.500000
-0.415735 -0.5 -0.277785 0.6052225 0.6857008 0.4043764 -0.415735 -0.500000
-0.415735 0.5 -0.277785 0.6052225 -0.6857008 0.4043764 -0.415735 0.500000
-0.46194 -0.5 -0.191341 0.672482 0.6856973 0.278545 -0.461940 -0.500000
-0.46194 0.5 -0.191341 0.672482 -0.6856973 0.2785449 -0.461940 0.500000
-0.490393 -0.5 -0.097545 0.7138986 0.6856992 0.142005 -0.490393 -0.500000
-0.490393 0.5 -0.09754497 0.7138986 -0.6856992 0.1420049 -0.490393 0.500000
-0.490393 -0.5 -0.097545 0.7138986 0.6856992 0.142005 -0.490393 -0.500000
-0.5 -0.5 0 0.7278807 0.6857039 2.997307e-08 -0.500000 -0.500000
-0.5 0.5 2.980232e-08 0.7278807 -0.6857039 -2.997307e-08 -0.500000 0.500000
-0.490393 -0.5 0.09754595 0.7138986 0.6856992 -0.1420049 -0.490393 -0.500000
-0.490393 0.5 0.09754601 0.7138986 -0.6856992 -0.142005 -0.490393 0.500000
-0.46194 -0.5 0.191342 0.672482 0.6856973 -0.2785449 -0.461940 -0.500000
-0.46194 0.5 0.191342 0.672482 -0.6856973 -0.278545 -0.461940 0.500000
-0.415734 -0.5 0.277786 0.6052225 0.6857008 -0.4043764 -0.415734 -0.500000
-0.415734 0.5 0.277786 0.6052225 -0.6857008 -0.4043764 -0.415734 0.500000
-0.353553 -0.5 0.353554 0.5147051 0.6857035 -0.5146741 -0.353553 -0.500000
-0.353553 0.5 0.353554 0.5146741 -0.6857035 -0.5147052 -0.353553 0.500000
-0.277785 -0.5 0.415735 0.4043764 0.6857008 -0.6052225 -0.277785 -0.500000
-0.277785 0.5 0.415735 0.4043763 -0.6857008 -0.6052226 -0.277785 0.500000
-0.191341 -0.5 0.46194 0.2785449 0.6856973 -0.672482 -0.191341 -0.500000
-0.191341 0.5 0.46194 0.2785449 -0.6856972 -0.6724821 -0.191341 0.500000
-0.09754401 -0.5 0.490393 0.1419745 0.6857023 -0.7139017 -0.097544 -0.500000
0 0.5 0.5 -0 -0.6857038 -0.7278808 0.000000 0.500000
-0.09754401 0.5 0.490393 0.1420049 -0.6856992 -0.7138987 -0.097544 0.500000
-0.490393 0.5 -0.09754497 0.7138986 -0.6856992 0.1420049 -0.490393 0.500000
0 0.5 0.5 -0 -1 -4.371139e-08 0.000000 0.500000
0.097545 0.5 0.490393 -0 -1 -4.371139e-08 0.097545 0.500000
0 0.5 2.980232e-08 -0 -1 -4.371139e-08 0.000000 0.500000
0.191342 0.5 0.46194 -0 -1 -4.371139e-08 0.191342 0.500000
0.277785 0.5 0.415735 -0 -1 -4.371139e-08 0.277785 0.500000
0.353553 0.5 0.353553 -0 -1 -4.371139e-08 0.353553 0.500000
0.415735 0.5 0.277785 -0 -1 -4.371139e-08 0.415735 0.500000
0.46194 0.5 0.191342 -0 -1 -4.371139e-08 0.461940 0.500000
0.490393 0.5 0.09754506 -0 -1 -4.371139e-08 0.490393 0.500000
0.5 0.5 2.980232e-08 -0 -1 -4.371139e-08 0.500000 0.500000
0.490393 0.5 -0.09754497 -0 -1 -4.371139e-08 0.490393 0.500000
0.46194 0.5 -0.191342 -0 -1 -4.371139e-08 0.461940 0.500000
0.415735 0.5 -0.277785 -0 -1 -4.371139e-08 0.415735 0.500000
0.353553 0.5 -0.353553 -0 -1 -4.371139e-08 0.353553 0.500000
0.277785 0.5 -0.415735 -0 -1 -4.371139e-08 0.277785 0.500000
0.191342 0.5 -0.46194 -0 -1 -4.371139e-08 0.191342 0.500000
0.097545 0.5 -0.490393 -0 -1 -4.371139e-08 0.097545 0.500000
0 0.5 -0.5 -0 -1 -4.371139e-08 0.000000 0.500000
-0.097545 0.5 -0.490393 -0 -1 -4.371139e-08 -0.097545 0.500000
-0.191342 0.5 -0.46194 -0 -1 -4.371139e-08 -0.191342 0.500000
-0.277785 0.5 -0.415735 -0 -1 -4.371139e-08 -0.277785 0.500000
-0.353554 0.5 -0.353553 -0 -1 -4.371139e-08 -0.353554 0.500000
-0.415735 0.5 -0.277785 -0 -1 -4.371139e-08 -0.415735 0.500000
-0.46194 0.5 -0.191341 -0 -1 -4.371139e-08 -0.461940 0.500000
-0.490393 0.5 -0.09754497 -0 -1 -4.371139e-08 -0.490393 0.500000
-0.5 0.5 2.980232e-08 -0 -1 -4.371139e-08 -0.500000 0.500000
-0.490393 0.5 0.09754601 -0 -1 -4.371139e-08 -0.490393 0.500000
-0.46194 0.5 0.191342 -0 -1 -4.371139e-08 -0.461940 0.500000
-0.415734 0.5 0.277786 -0 -1 -4.371139e-08 -0.415734 0.500000
-0.353553 0.5 0.353554 -0 -1 -4.371139e-08 -0.353553 0.500000
-0.277785 0.5 0.415735 -0 -1 -4.371139e-08 -0.277785 0.500000
-0.191341 0.5 0.46194 -0 -1 -4.371139e-08 -0.191341 0.500000
-0.09754401 0.5 0.490393 -0 -1 -4.371139e-08 -0.097544 0.500000
3 0 1 2 
3 1 3 2 
3 3 4 2 
3 4 5 2 
3 5 6 2 
3 6 7 2 
3 7 8 2 
3 8 9 2 
3 9 10 2 
3 10 11 2 
3 12 13 14 
3 15 16 2 
3 16 17 2 
3 17 18 2 
3 18 19 2 
3 19 20 2 
3 20 21 2 
3 21 22 2 
3 22 23 2 
3 23 24 2 
3 24 25 2 
3 25 26 2 
3 26 27 2 
3 28 29 14 
3 30 31 2 
3 31 32 2 
3 32 33 2 
3 33 34 2 
3 34 35 2 
3 35 36 2 
3 36 37 2 
3 37 0 2 
3 38 39 40 
3 39 41 42 
3 41 43 44 
3 43 45 46 
3 45 47 48 
3 47 49 50 
3 49 51 52 
3 51 53 54 
3 53 55 56 
3 55 57 58 
3 57 59 60 
3 59 61 62 
3 61 63 64 
3 63 65 66 
3 65 67 68 
3 67 69 70 
3 69 71 72 
3 71 73 74 
3 73 75 76 
3 75 77 78 
3 77 79 80 
3 79 81 82 
3 81 83 84 
3 85 86 87 
3 86 88 89 
3 88 90 91 
3 90 92 93 
3 92 94 95 
3 94 96 97 
3 96 98 99 
3 100 38 101 
3 98 100 102 
3 101 38 40 
3 40 39 42 
3 42 41 44 
3 44 43 46 
3 46 45 48 
3 48 47 50 
3 50 49 52 
3 52 51 54 
3 54 53 56 
3 56 55 58 
3 58 57 60 
3 60 59 62 
3 62 61 64 
3 64 63 66 
3 66 65 68 
3 68 67 70 
3 70 69 72 
3 72 71 74 
3 74 73 76 
3 76 75 78 
3 78 77 80 
3 80 79 82 
3 82 81 84 
3 103 85 87 
3 87 86 89 
3 89 88 91 
3 91 90 93 
3 93 92 95 
3 95 94 97 
3 97 96 99 
3 102 100 101 
3 99 98 102 
3 104 105 106 
3 105 107 106 
3 107 108 106 
3 108 109 106 
3 109 110 106 
3 110 111 106 
3 111 112 106 
3 112 113 106 
3 113 114 106 
3 114 115 106 
3 115 116 106 
3 116 117 106 
3 117 118 106 
3 118 119 106 
3 119 120 106 
3 120 121 106 
3 121 122 106 
3 122 123 106 
3 123 124 106 
3 124 125 106 
3 125 126 106 
3 126 127 106 
3 127 128 106 
3 128 129 106 
3 129 130 106 
3 130 131 106 
3 131 132 106 
3 132 133 106 
3 133 134 106 
3 134 135 106 
3 135 136 106 
3 136 104 106 
