ply
format ascii 1.0
comment VCGLIB generated
element vertex 217
property float x
property float y
property float z
property float nx
property float ny
property float nz
property float texture_u
property float texture_v
element face 384
property list uchar int vertex_indices
end_header
-1.087459e-09 5.929156e-10 0.1339746 0 8.738099e-10 1 -0.000000 0.000000
0.5 0 0 0.4817703 0 0.8762975 0.500000 0.000000
0.25 0.4330127 0 0.2408856 0.4172253 0.8762975 0.250000 0.433013
-0.25 0.4330127 0 -0.2408856 0.4172253 0.8762974 -0.250000 0.433013
-0.5 6.123234e-17 0 -0.4817695 0 0.876298 -0.500000 0.000000
-0.25 -0.4330127 0 -0.2408856 -0.4172253 0.8762975 -0.250000 -0.433013
0.25 -0.4330127 0 0.2408856 -0.4172253 0.8762974 0.250000 -0.433013
0.2764829 -2.701755e-09 0.09499347 0.2770157 -1.123928e-09 0.9608654 0.276483 -0.000000
0.4330127 0.25 0 0.4040901 0.2333018 0.8844668 0.433013 0.250000
0.1382414 0.2394412 0.09499347 0.1385076 0.2399023 0.9608656 0.138241 0.239441
0 0.5 0 0 0.4666032 0.8844668 0.000000 0.500000
-0.1382414 0.2394412 0.09499347 -0.1385076 0.2399023 0.9608656 -0.138241 0.239441
-0.4330127 0.25 0 -0.4040898 0.2333016 0.8844669 -0.433013 0.250000
-0.2764829 3.441888e-09 0.09499347 -0.2770157 -1.461106e-08 0.9608654 -0.276483 0.000000
-0.4330127 -0.25 0 -0.4040901 -0.2333018 0.8844668 -0.433013 -0.250000
-0.1382414 -0.2394412 0.09499347 -0.1385076 -0.2399023 0.9608656 -0.138241 -0.239441
0 -0.5 0 0 -0.4666032 0.8844668 0.000000 -0.500000
0.1382414 -0.2394412 0.09499347 0.1385076 -0.2399023 0.9608656 0.138241 -0.239441
0.4330127 -0.25 0 0.4040898 -0.2333016 0.8844669 0.433013 -0.250000
0.3480649 0.1232527 0.06330746 0.3491445 0.1243418 0.9287826 0.348065 0.123253
0.2807724 0.2398066 0.06330746 0.2822556 0.2401971 0.9287826 0.280772 0.239807
0.2085343 0.1203973 0.1045507 0.2091518 0.120754 0.9703989 0.208534 0.120397
0.06729244 0.3630594 0.06330746 0.06688902 0.364539 0.9287826 0.067292 0.363059
-0.06729244 0.3630594 0.06330746 -0.06688897 0.3645391 0.9287826 -0.067292 0.363059
-2.387708e-09 0.2407946 0.1045507 -2.701159e-08 0.2415079 0.9703988 -0.000000 0.240795
-0.2807725 0.2398067 0.06330746 -0.2822559 0.2401969 0.9287826 -0.280772 0.239807
-0.3480649 0.1232527 0.06330746 -0.3491445 0.1243422 0.9287826 -0.348065 0.123253
-0.2085343 0.1203973 0.1045507 -0.2091518 0.120754 0.9703989 -0.208534 0.120397
-0.3480649 -0.1232527 0.06330746 -0.3491445 -0.1243418 0.9287826 -0.348065 -0.123253
-0.2807724 -0.2398066 0.06330746 -0.2822556 -0.2401971 0.9287826 -0.280772 -0.239807
-0.2085343 -0.1203973 0.1045507 -0.2091518 -0.120754 0.9703989 -0.208534 -0.120397
-0.06729244 -0.3630594 0.06330746 -0.06688902 -0.364539 0.9287826 -0.067292 -0.363059
0.06729244 -0.3630594 0.06330746 0.06688897 -0.3645391 0.9287826 0.067292 -0.363059
2.387708e-09 -0.2407946 0.1045507 2.701159e-08 -0.2415079 0.9703988 0.000000 -0.240795
0.2807725 -0.2398067 0.06330746 0.2822559 -0.2401969 0.9287826 0.280772 -0.239807
0.3480649 -0.1232527 0.06330746 0.3491445 -0.1243422 0.9287826 0.348065 -0.123253
0.2085343 -0.1203973 0.1045507 0.2091518 -0.1207539 0.9703989 0.208534 -0.120397
0.1386614 -3.582092e-09 0.1243144 0.1390043 2.190849e-08 0.9902918 0.138661 -0.000000
0.06933073 0.1200843 0.1243144 0.06950217 0.1203813 0.9902918 0.069331 0.120084
0.4073132 -2.030136e-09 0.04726315 0.4067791 -1.15502e-09 0.9135266 0.407313 -0.000000
0.4829629 0.1294095 0 0.4551277 0.1178692 0.8825904 0.482963 0.129410
0.3535534 0.3535534 0 0.3296413 0.3352176 0.8825904 0.353553 0.353553
0.2036566 0.3527436 0.04726315 0.2033898 0.3522813 0.9135264 0.203657 0.352744
-0.06933073 0.1200843 0.1243144 -0.06950217 0.1203813 0.9902918 -0.069331 0.120084
0.1294095 0.4829629 0 0.1254861 0.4530864 0.8825905 0.129410 0.482963
-0.1294095 0.4829629 0 -0.1254861 0.4530863 0.8825906 -0.129410 0.482963
-0.2036566 0.3527436 0.04726315 -0.2033897 0.3522813 0.9135264 -0.203657 0.352744
-0.1386615 3.834686e-09 0.1243144 -0.1390043 -1.729618e-08 0.9902918 -0.138661 0.000000
-0.3535534 0.3535534 0 -0.3296414 0.3352176 0.8825904 -0.353553 0.353553
-0.4829629 0.1294095 0 -0.4551277 0.1178689 0.8825904 -0.482963 0.129410
-0.4073133 1.861617e-09 0.04726309 -0.4067796 -4.851084e-08 0.9135264 -0.407313 0.000000
-0.06933073 -0.1200843 0.1243144 -0.06950217 -0.1203813 0.9902918 -0.069331 -0.120084
-0.4829629 -0.1294095 0 -0.4551275 -0.1178689 0.8825904 -0.482963 -0.129410
-0.3535534 -0.3535534 0 -0.3296413 -0.3352176 0.8825904 -0.353553 -0.353553
-0.2036566 -0.3527436 0.04726315 -0.2033898 -0.3522813 0.9135264 -0.203657 -0.352744
0.06933073 -0.1200843 0.1243144 0.06950217 -0.1203813 0.9902918 0.069331 -0.120084
-0.1294095 -0.4829629 0 -0.1254861 -0.4530864 0.8825905 -0.129410 -0.482963
0.1294095 -0.4829629 0 0.1254861 -0.4530863 0.8825906 0.129410 -0.482963
0.2036566 -0.3527436 0.04726315 0.2033897 -0.3522813 0.9135264 0.203657 -0.352744
0.3535534 -0.3535534 0 0.3296414 -0.3352176 0.8825904 0.353553 -0.353553
0.4829629 -0.1294095 0 0.4551278 -0.1178691 0.8825902 0.482963 -0.129410
0.3158927 0.1823808 0.06507564 0.317341 0.183217 0.9304441 0.315893 0.182381
0.2443153 0.1804293 0.08673656 0.2452492 0.1808963 0.9524334 0.244315 0.180429
0.278414 0.1213686 0.08673656 0.2792855 0.1219438 0.9524333 0.278414 0.121369
-1.902795e-09 0.3647615 0.06507564 -5.361834e-08 0.3664338 0.9304442 -0.000000 0.364761
-0.03409871 0.3017978 0.08673656 -0.03403612 0.3028402 0.9524334 -0.034099 0.301798
0.03409871 0.3017978 0.08673656 0.03403613 0.3028402 0.9524335 0.034099 0.301798
-0.3158927 0.1823808 0.06507558 -0.3173413 0.1832171 0.930444 -0.315893 0.182381
-0.278414 0.1213686 0.08673656 -0.2792856 0.1219439 0.9524333 -0.278414 0.121369
-0.2443153 0.1804293 0.08673656 -0.2452494 0.1808963 0.9524334 -0.244315 0.180429
-0.3158927 -0.1823808 0.06507564 -0.317341 -0.183217 0.9304441 -0.315893 -0.182381
-0.2443153 -0.1804293 0.08673656 -0.2452492 -0.1808963 0.9524334 -0.244315 -0.180429
-0.278414 -0.1213686 0.08673656 -0.2792855 -0.1219438 0.9524333 -0.278414 -0.121369
1.902795e-09 -0.3647615 0.06507564 5.361834e-08 -0.3664338 0.9304442 0.000000 -0.364761
0.03409871 -0.3017978 0.08673656 0.03403612 -0.3028402 0.9524334 0.034099 -0.301798
-0.03409871 -0.3017978 0.08673656 -0.03403613 -0.3028402 0.9524335 -0.034099 -0.301798
0.3158927 -0.1823808 0.06507558 0.3173413 -0.1832171 0.930444 0.315893 -0.182381
0.278414 -0.1213686 0.08673656 0.2792856 -0.1219439 0.9524333 0.278414 -0.121369
0.2443153 -0.1804293 0.08673656 0.2452494 -0.1808963 0.9524334 0.244315 -0.180429
0.1734028 0.06017384 0.1169856 0.1738456 0.06034984 0.982922 0.173403 0.060174
0.1388135 0.1200842 0.1169856 0.1391873 0.1203798 0.982922 0.138813 0.120084
0.1040264 0.06005964 0.1267341 0.1042894 0.06021148 0.9927227 0.104026 0.060060
0.4406326 0.0638549 0.02938819 0.4404261 0.06610728 0.8953518 0.440633 0.063855
0.416651 0.1260544 0.03425914 0.4179329 0.1281742 0.8993906 0.416651 0.126054
0.3778877 0.06240266 0.05772066 0.3782686 0.06338633 0.9235232 0.377888 0.062403
0.3174919 0.2978032 0.03425914 0.3199686 0.2978536 0.8993906 0.317492 0.297803
0.2756163 0.3496716 0.02938813 0.2774636 0.3483666 0.8953517 0.275616 0.349672
0.2429861 0.296059 0.05772066 0.2440288 0.2958974 0.923523 0.242986 0.296059
0.03458929 0.1802581 0.1169856 0.0346583 0.1807297 0.982922 0.034589 0.180258
-0.03458929 0.1802581 0.1169856 -0.03465833 0.1807297 0.982922 -0.034589 0.180258
-5.290752e-10 0.1201193 0.1267341 -3.467844e-09 0.120423 0.9927227 -0.000000 0.120119
0.1650164 0.4135266 0.02938813 0.1629623 0.4144737 0.8953518 0.165016 0.413527
0.09915917 0.4238576 0.03425914 0.09796454 0.4260277 0.8993906 0.099159 0.423858
0.1349016 0.3584617 0.05772066 0.1342402 0.3592837 0.923523 0.134902 0.358462
-0.09915917 0.4238575 0.03425914 -0.09796453 0.4260276 0.8993906 -0.099159 0.423858
-0.1650164 0.4135265 0.02938813 -0.1629623 0.4144738 0.8953518 -0.165016 0.413527
-0.1349016 0.3584617 0.05772066 -0.1342402 0.3592839 0.923523 -0.134902 0.358462
-0.1388135 0.1200842 0.1169856 -0.1391873 0.1203798 0.982922 -0.138813 0.120084
-0.1734028 0.06017385 0.1169856 -0.1738456 0.06034986 0.982922 -0.173403 0.060174
-0.1040264 0.06005965 0.1267341 -0.1042894 0.0602115 0.9927227 -0.104026 0.060060
-0.2756163 0.3496716 0.02938813 -0.2774637 0.3483667 0.8953516 -0.275616 0.349672
-0.3174919 0.2978031 0.03425914 -0.3199688 0.2978534 0.8993906 -0.317492 0.297803
-0.2429861 0.296059 0.05772066 -0.2440288 0.2958974 0.9235229 -0.242986 0.296059
-0.4166511 0.1260544 0.03425914 -0.417933 0.1281742 0.8993906 -0.416651 0.126054
-0.4406327 0.06385491 0.02938813 -0.4404262 0.06610696 0.8953517 -0.440633 0.063855
-0.3778878 0.06240266 0.05772066 -0.3782689 0.06338613 0.9235231 -0.377888 0.062403
-0.1734028 -0.06017384 0.1169856 -0.1738456 -0.06034986 0.982922 -0.173403 -0.060174
-0.1388135 -0.1200842 0.1169856 -0.1391873 -0.1203798 0.982922 -0.138813 -0.120084
-0.1040264 -0.06005964 0.1267341 -0.1042894 -0.06021151 0.9927227 -0.104026 -0.060060
-0.4406327 -0.0638549 0.02938813 -0.4404261 -0.06610702 0.8953518 -0.440633 -0.063855
-0.416651 -0.1260544 0.03425914 -0.417933 -0.128174 0.8993906 -0.416651 -0.126054
-0.3778877 -0.06240266 0.05772066 -0.3782688 -0.06338621 0.9235231 -0.377888 -0.062403
-0.3174919 -0.2978032 0.03425914 -0.3199686 -0.2978536 0.8993906 -0.317492 -0.297803
-0.2756163 -0.3496716 0.02938813 -0.2774636 -0.3483666 0.8953517 -0.275616 -0.349672
-0.2429861 -0.296059 0.05772066 -0.2440288 -0.2958974 0.923523 -0.242986 -0.296059
-0.03458929 -0.1802581 0.1169856 -0.03465831 -0.1807297 0.982922 -0.034589 -0.180258
0.03458929 -0.1802581 0.1169856 0.03465833 -0.1807297 0.982922 0.034589 -0.180258
5.395733e-10 -0.1201193 0.1267341 3.467844e-09 -0.120423 0.9927227 0.000000 -0.120119
-0.1650164 -0.4135266 0.02938813 -0.1629623 -0.4144737 0.8953518 -0.165016 -0.413527
-0.09915917 -0.4238576 0.03425914 -0.09796454 -0.4260277 0.8993906 -0.099159 -0.423858
-0.1349016 -0.3584617 0.05772066 -0.1342402 -0.3592837 0.923523 -0.134902 -0.358462
0.09915917 -0.4238575 0.03425914 0.09796453 -0.4260276 0.8993906 0.099159 -0.423858
0.1650164 -0.4135265 0.02938813 0.1629623 -0.4144738 0.8953518 0.165016 -0.413527
0.1349016 -0.3584617 0.05772066 0.1342402 -0.3592839 0.923523 0.134902 -0.358462
0.1388135 -0.1200842 0.1169856 0.1391873 -0.1203798 0.982922 0.138813 -0.120084
0.1734028 -0.06017385 0.1169856 0.1738456 -0.06034983 0.982922 0.173403 -0.060174
0.1040264 -0.06005965 0.1267341 0.1042894 -0.06021149 0.9927227 0.104026 -0.060060
0.2756163 -0.3496716 0.02938813 0.2774637 -0.3483667 0.8953516 0.275616 -0.349672
0.3174919 -0.2978031 0.03425914 0.3199688 -0.2978534 0.8993906 0.317492 -0.297803
0.2429861 -0.296059 0.05772066 0.2440288 -0.2958974 0.9235229 0.242986 -0.296059
0.4166511 -0.1260544 0.03425914 0.4179329 -0.1281744 0.8993906 0.416651 -0.126054
0.4406326 -0.06385491 0.02938819 0.4404261 -0.06610723 0.8953517 0.440633 -0.063855
0.3778877 -0.06240266 0.05772066 0.3782685 -0.06338624 0.9235232 0.377888 -0.062403
0.3111604 0.06125713 0.08235574 0.3117794 0.06173683 0.9481467 0.311160 0.061257
0.2426209 0.06052945 0.1022056 0.2432116 0.06079153 0.9680664 0.242621 0.060529
0.3884824 0.1860692 0.03644884 0.3905343 0.1876943 0.9012513 0.388482 0.186069
0.3553818 0.243401 0.03644884 0.3578152 0.2443657 0.9012512 0.355382 0.243401
0.2086304 0.2388442 0.0823558 0.2093555 0.2391403 0.9481468 0.208630 0.238844
0.1737304 0.1798511 0.1022056 0.1742528 0.1802315 0.9680665 0.173730 0.179851
0.1025299 0.3001013 0.0823558 0.1024237 0.3008773 0.9481468 0.102530 0.300101
0.06889036 0.2403805 0.1022056 0.06895863 0.2410231 0.9680664 0.068890 0.240381
0.03310054 0.4294702 0.03644884 0.03271914 0.4320598 0.9012513 0.033101 0.429470
-0.03310055 0.4294702 0.03644884 -0.03271923 0.4320597 0.9012513 -0.033101 0.429470
-0.1025299 0.3001013 0.0823558 -0.1024237 0.3008773 0.9481468 -0.102530 0.300101
-0.06889036 0.2403805 0.1022056 -0.06895861 0.2410231 0.9680665 -0.068890 0.240381
-0.2086304 0.2388442 0.0823558 -0.2093554 0.2391403 0.9481468 -0.208630 0.238844
-0.1737305 0.1798511 0.1022056 -0.1742527 0.1802315 0.9680665 -0.173730 0.179851
-0.3553819 0.243401 0.03644878 -0.3578153 0.2443653 0.9012513 -0.355382 0.243401
-0.3884824 0.1860692 0.03644878 -0.390534 0.1876945 0.9012513 -0.388482 0.186069
-0.3111604 0.06125714 0.08235574 -0.3117794 0.06173688 0.9481467 -0.311160 0.061257
-0.2426209 0.06052946 0.1022056 -0.2432116 0.06079156 0.9680664 -0.242621 0.060529
-0.3111604 -0.06125713 0.08235574 -0.3117795 -0.0617369 0.9481467 -0.311160 -0.061257
-0.2426209 -0.06052945 0.1022056 -0.2432116 -0.06079156 0.9680664 -0.242621 -0.060529
-0.3884824 -0.1860692 0.03644884 -0.3905343 -0.1876943 0.9012513 -0.388482 -0.186069
-0.3553818 -0.243401 0.03644884 -0.3578152 -0.2443657 0.9012512 -0.355382 -0.243401
-0.2086304 -0.2388442 0.0823558 -0.2093555 -0.2391403 0.9481468 -0.208630 -0.238844
-0.1737304 -0.1798511 0.1022056 -0.1742527 -0.1802315 0.9680665 -0.173730 -0.179851
-0.1025299 -0.3001013 0.0823558 -0.1024237 -0.3008773 0.9481468 -0.102530 -0.300101
-0.06889036 -0.2403805 0.1022056 -0.06895863 -0.2410231 0.9680664 -0.068890 -0.240381
-0.03310054 -0.4294702 0.03644884 -0.03271914 -0.4320598 0.9012513 -0.033101 -0.429470
0.03310055 -0.4294702 0.03644884 0.03271923 -0.4320597 0.9012513 0.033101 -0.429470
0.1025299 -0.3001013 0.0823558 0.1024237 -0.3008773 0.9481468 0.102530 -0.300101
0.06889036 -0.2403805 0.1022056 0.06895861 -0.2410231 0.9680665 0.068890 -0.240381
0.2086304 -0.2388442 0.0823558 0.2093554 -0.2391403 0.9481468 0.208630 -0.238844
0.1737305 -0.1798511 0.1022056 0.1742527 -0.1802315 0.9680665 0.173730 -0.179851
0.3553819 -0.243401 0.03644878 0.3578153 -0.2443653 0.9012513 0.355382 -0.243401
0.3884824 -0.1860692 0.03644878 0.390534 -0.1876945 0.9012513 0.388482 -0.186069
0.3111604 -0.06125714 0.08235574 0.3117794 -0.0617368 0.9481467 0.311160 -0.061257
0.2426209 -0.06052946 0.1022056 0.2432116 -0.06079153 0.9680664 0.242621 -0.060529
0.0693356 -2.393181e-09 0.131568 0.06950806 9.005964e-09 0.9975814 0.069336 -0.000000
0.0346678 0.06004639 0.131568 0.03475403 0.06019575 0.9975814 0.034668 0.060046
0.2078473 -4.014077e-09 0.1121359 0.2083344 1.309922e-08 0.9780577 0.207847 -0.000000
0.1039236 0.180001 0.1121359 0.1041673 0.180423 0.9780577 0.103924 0.180001
0.3436246 -2.660719e-09 0.07308167 0.3439412 -1.118912e-09 0.9389912 0.343625 -0.000000
0.4633285 -1.803885e-09 0.02016121 0.4602967 0 0.8877652 0.463329 -0.000000
0.4957224 0.06526309 5.960464e-08 0.4717299 0.05744513 0.8798699 0.495722 0.065263
0.4619398 0.1913417 5.960464e-08 0.4326888 0.1768904 0.8840194 0.461940 0.191342
0.1718123 0.2975876 0.07308173 0.1719707 0.2978621 0.9389911 0.171812 0.297588
0.3966767 0.3043807 0 0.3695362 0.2862744 0.8840192 0.396677 0.304381
0.3043807 0.3966767 0 0.2856141 0.3798075 0.8798698 0.304381 0.396677
0.2316643 0.4012543 0.02016121 0.2301485 0.3986284 0.8877652 0.231664 0.401254
-0.0346678 0.06004639 0.131568 -0.03475402 0.06019574 0.9975814 -0.034668 0.060046
-0.1039236 0.180001 0.1121359 -0.1041672 0.1804229 0.9780577 -0.103924 0.180001
0.1913417 0.4619398 5.960464e-08 0.1861158 0.4372524 0.87987 0.191342 0.461940
0.06526309 0.4957224 5.960464e-08 0.06315285 0.4631644 0.8840194 0.065263 0.495722
-0.1718123 0.2975876 0.07308173 -0.1719707 0.297862 0.9389911 -0.171812 0.297588
-0.06526309 0.4957224 5.960464e-08 -0.06315292 0.4631644 0.8840195 -0.065263 0.495722
-0.1913417 0.4619398 5.960464e-08 -0.1861157 0.4372523 0.8798701 -0.191342 0.461940
-0.2316643 0.4012543 0.02016121 -0.2301484 0.3986285 0.8877652 -0.231664 0.401254
-0.06933561 2.255313e-09 0.131568 -0.06950805 -6.100814e-09 0.9975814 -0.069336 0.000000
-0.2078473 4.358197e-09 0.1121359 -0.2083344 -2.562891e-08 0.9780577 -0.207847 0.000000
-0.3043807 0.3966767 0 -0.2856142 0.3798076 0.8798698 -0.304381 0.396677
-0.3966767 0.3043807 0 -0.3695361 0.2862742 0.8840193 -0.396677 0.304381
-0.3436247 3.066689e-09 0.07308167 -0.3439414 -4.028084e-08 0.9389911 -0.343625 0.000000
-0.4619398 0.1913417 5.960464e-08 -0.4326885 0.1768905 0.8840195 -0.461940 0.191342
-0.4957224 0.06526309 5.960464e-08 -0.4717293 0.05744499 0.8798702 -0.495722 0.065263
-0.4633286 1.281913e-09 0.02016115 -0.4602964 -1.357026e-09 0.8877653 -0.463329 0.000000
-0.0346678 -0.06004639 0.131568 -0.03475403 -0.06019575 0.9975814 -0.034668 -0.060046
-0.1039236 -0.180001 0.1121359 -0.1041673 -0.180423 0.9780577 -0.103924 -0.180001
-0.4957224 -0.06526309 5.960464e-08 -0.4717293 -0.05744499 0.8798702 -0.495722 -0.065263
-0.4619398 -0.1913417 5.960464e-08 -0.4326888 -0.1768904 0.8840194 -0.461940 -0.191342
-0.1718123 -0.2975876 0.07308173 -0.1719707 -0.2978621 0.9389911 -0.171812 -0.297588
-0.3966767 -0.3043807 0 -0.3695362 -0.2862744 0.8840192 -0.396677 -0.304381
-0.3043807 -0.3966767 0 -0.2856141 -0.3798075 0.8798698 -0.304381 -0.396677
-0.2316643 -0.4012543 0.02016121 -0.2301485 -0.3986284 0.8877652 -0.231664 -0.401254
0.0346678 -0.06004639 0.131568 0.03475402 -0.06019574 0.9975814 0.034668 -0.060046
0.1039236 -0.180001 0.1121359 0.1041672 -0.1804229 0.9780577 0.103924 -0.180001
-0.1913417 -0.4619398 5.960464e-08 -0.1861158 -0.4372524 0.87987 -0.191342 -0.461940
-0.06526309 -0.4957224 5.960464e-08 -0.06315285 -0.4631644 0.8840194 -0.065263 -0.495722
0.1718123 -0.2975876 0.07308173 0.1719707 -0.297862 0.9389911 0.171812 -0.297588
0.06526309 -0.4957224 5.960464e-08 0.06315292 -0.4631644 0.8840195 0.065263 -0.495722
0.1913417 -0.4619398 5.960464e-08 0.1861157 -0.4372523 0.8798701 0.191342 -0.461940
0.2316643 -0.4012543 0.02016121 0.2301484 -0.3986285 0.8877652 0.231664 -0.401254
0.3043807 -0.3966767 0 0.2856142 -0.3798076 0.8798698 0.304381 -0.396677
0.3966767 -0.3043807 0 0.3695361 -0.2862742 0.8840193 0.396677 -0.304381
0.4619398 -0.1913417 5.960464e-08 0.4326885 -0.1768905 0.8840195 0.461940 -0.191342
0.4957224 -0.06526309 5.960464e-08 0.47173 -0.05744513 0.8798699 0.495722 -0.065263
3 61 62 63 
3 64 65 66 
3 67 68 69 
3 70 71 72 
3 73 74 75 
3 76 77 78 
3 79 80 81 
3 82 83 84 
3 85 86 87 
3 88 89 90 
3 91 92 93 
3 94 95 96 
3 97 98 99 
3 100 101 102 
3 103 104 105 
3 106 107 108 
3 109 110 111 
3 112 113 114 
3 115 116 117 
3 118 119 120 
3 121 122 123 
3 124 125 126 
3 127 128 129 
3 130 131 132 
3 133 63 134 
3 135 136 61 
3 62 137 138 
3 139 66 140 
3 141 142 64 
3 65 143 144 
3 145 69 146 
3 147 148 67 
3 68 149 150 
3 151 72 152 
3 153 154 70 
3 71 155 156 
3 157 75 158 
3 159 160 73 
3 74 161 162 
3 163 78 164 
3 165 166 76 
3 77 167 168 
3 169 81 170 
3 171 134 79 
3 80 138 172 
3 173 84 133 
3 174 175 82 
3 83 176 135 
3 137 87 177 
3 136 178 85 
3 86 179 180 
3 170 90 181 
3 172 140 88 
3 89 144 182 
3 177 93 139 
3 180 183 91 
3 92 184 141 
3 143 96 185 
3 142 186 94 
3 95 187 188 
3 181 99 189 
3 182 146 97 
3 98 150 190 
3 185 102 145 
3 188 191 100 
3 101 192 147 
3 149 105 193 
3 148 194 103 
3 104 195 196 
3 189 108 197 
3 190 152 106 
3 107 156 198 
3 193 111 151 
3 196 199 109 
3 110 200 153 
3 155 114 201 
3 154 202 112 
3 113 203 204 
3 197 117 205 
3 198 158 115 
3 116 162 206 
3 201 120 157 
3 204 207 118 
3 119 208 159 
3 161 123 209 
3 160 210 121 
3 122 211 212 
3 205 126 169 
3 206 164 124 
3 125 168 171 
3 209 129 163 
3 212 213 127 
3 128 214 165 
3 167 132 173 
3 166 215 130 
3 131 216 174 
3 19 61 63 
3 61 20 62 
3 63 62 21 
3 22 64 66 
3 64 23 65 
3 66 65 24 
3 25 67 69 
3 67 26 68 
3 69 68 27 
3 28 70 72 
3 70 29 71 
3 72 71 30 
3 31 73 75 
3 73 32 74 
3 75 74 33 
3 34 76 78 
3 76 35 77 
3 78 77 36 
3 37 79 81 
3 79 21 80 
3 81 80 38 
3 39 82 84 
3 82 40 83 
3 84 83 19 
3 20 85 87 
3 85 41 86 
3 87 86 42 
3 38 88 90 
3 88 24 89 
3 90 89 43 
3 42 91 93 
3 91 44 92 
3 93 92 22 
3 23 94 96 
3 94 45 95 
3 96 95 46 
3 43 97 99 
3 97 27 98 
3 99 98 47 
3 46 100 102 
3 100 48 101 
3 102 101 25 
3 26 103 105 
3 103 49 104 
3 105 104 50 
3 47 106 108 
3 106 30 107 
3 108 107 51 
3 50 109 111 
3 109 52 110 
3 111 110 28 
3 29 112 114 
3 112 53 113 
3 114 113 54 
3 51 115 117 
3 115 33 116 
3 117 116 55 
3 54 118 120 
3 118 56 119 
3 120 119 31 
3 32 121 123 
3 121 57 122 
3 123 122 58 
3 55 124 126 
3 124 36 125 
3 126 125 37 
3 58 127 129 
3 127 59 128 
3 129 128 34 
3 35 130 132 
3 130 60 131 
3 132 131 39 
3 7 133 134 
3 133 19 63 
3 134 63 21 
3 19 135 61 
3 135 8 136 
3 61 136 20 
3 21 62 138 
3 62 20 137 
3 138 137 9 
3 9 139 140 
3 139 22 66 
3 140 66 24 
3 22 141 64 
3 141 10 142 
3 64 142 23 
3 24 65 144 
3 65 23 143 
3 144 143 11 
3 11 145 146 
3 145 25 69 
3 146 69 27 
3 25 147 67 
3 147 12 148 
3 67 148 26 
3 27 68 150 
3 68 26 149 
3 150 149 13 
3 13 151 152 
3 151 28 72 
3 152 72 30 
3 28 153 70 
3 153 14 154 
3 70 154 29 
3 30 71 156 
3 71 29 155 
3 156 155 15 
3 15 157 158 
3 157 31 75 
3 158 75 33 
3 31 159 73 
3 159 16 160 
3 73 160 32 
3 33 74 162 
3 74 32 161 
3 162 161 17 
3 17 163 164 
3 163 34 78 
3 164 78 36 
3 34 165 76 
3 165 18 166 
3 76 166 35 
3 36 77 168 
3 77 35 167 
3 168 167 7 
3 0 169 170 
3 169 37 81 
3 170 81 38 
3 37 171 79 
3 171 7 134 
3 79 134 21 
3 38 80 172 
3 80 21 138 
3 172 138 9 
3 7 173 133 
3 173 39 84 
3 133 84 19 
3 39 174 82 
3 174 1 175 
3 82 175 40 
3 19 83 135 
3 83 40 176 
3 135 176 8 
3 9 137 177 
3 137 20 87 
3 177 87 42 
3 20 136 85 
3 136 8 178 
3 85 178 41 
3 42 86 180 
3 86 41 179 
3 180 179 2 
3 0 170 181 
3 170 38 90 
3 181 90 43 
3 38 172 88 
3 172 9 140 
3 88 140 24 
3 43 89 182 
3 89 24 144 
3 182 144 11 
3 9 177 139 
3 177 42 93 
3 139 93 22 
3 42 180 91 
3 180 2 183 
3 91 183 44 
3 22 92 141 
3 92 44 184 
3 141 184 10 
3 11 143 185 
3 143 23 96 
3 185 96 46 
3 23 142 94 
3 142 10 186 
3 94 186 45 
3 46 95 188 
3 95 45 187 
3 188 187 3 
3 0 181 189 
3 181 43 99 
3 189 99 47 
3 43 182 97 
3 182 11 146 
3 97 146 27 
3 47 98 190 
3 98 27 150 
3 190 150 13 
3 11 185 145 
3 185 46 102 
3 145 102 25 
3 46 188 100 
3 188 3 191 
3 100 191 48 
3 25 101 147 
3 101 48 192 
3 147 192 12 
3 13 149 193 
3 149 26 105 
3 193 105 50 
3 26 148 103 
3 148 12 194 
3 103 194 49 
3 50 104 196 
3 104 49 195 
3 196 195 4 
3 0 189 197 
3 189 47 108 
3 197 108 51 
3 47 190 106 
3 190 13 152 
3 106 152 30 
3 51 107 198 
3 107 30 156 
3 198 156 15 
3 13 193 151 
3 193 50 111 
3 151 111 28 
3 50 196 109 
3 196 4 199 
3 109 199 52 
3 28 110 153 
3 110 52 200 
3 153 200 14 
3 15 155 201 
3 155 29 114 
3 201 114 54 
3 29 154 112 
3 154 14 202 
3 112 202 53 
3 54 113 204 
3 113 53 203 
3 204 203 5 
3 0 197 205 
3 197 51 117 
3 205 117 55 
3 51 198 115 
3 198 15 158 
3 115 158 33 
3 55 116 206 
3 116 33 162 
3 206 162 17 
3 15 201 157 
3 201 54 120 
3 157 120 31 
3 54 204 118 
3 204 5 207 
3 118 207 56 
3 31 119 159 
3 119 56 208 
3 159 208 16 
3 17 161 209 
3 161 32 123 
3 209 123 58 
3 32 160 121 
3 160 16 210 
3 121 210 57 
3 58 122 212 
3 122 57 211 
3 212 211 6 
3 0 205 169 
3 205 55 126 
3 169 126 37 
3 55 206 124 
3 206 17 164 
3 124 164 36 
3 37 125 171 
3 125 36 168 
3 171 168 7 
3 17 209 163 
3 209 58 129 
3 163 129 34 
3 58 212 127 
3 212 6 213 
3 127 213 59 
3 34 128 165 
3 128 59 214 
3 165 214 18 
3 7 167 173 
3 167 35 132 
3 173 132 39 
3 35 166 130 
3 166 18 215 
3 130 215 60 
3 39 131 174 
3 131 60 216 
3 174 216 1 
